<svg id="Logo" xmlns="http://www.w3.org/2000/svg" width="233" height="50" viewBox="0 0 233 50">
  <defs>
    <style>
      .cls-1 {
        fill: #00704a;
      }

      .cls-1, .cls-2, .cls-3 {
        fill-rule: evenodd;
      }

      .cls-2 {
        fill: #191918;
      }

      .cls-3 {
        fill: #085a45;
      }
    </style>
  </defs>
  <g id="Logo-Large">
    <g id="College">
      <path id="College-2" data-name="College" class="cls-1" d="M163.823,42.58a2.566,2.566,0,0,0-1.979-.927A3.183,3.183,0,0,0,158.62,45a3.221,3.221,0,0,0,3.224,3.484,2.641,2.641,0,0,0,2.111-1.139l1.38,0.98a4.16,4.16,0,0,1-3.5,1.669,4.928,4.928,0,1,1,0-9.855,4.087,4.087,0,0,1,3.291,1.484Zm9.754-2.437a4.664,4.664,0,0,1,5,4.914,4.785,4.785,0,0,1-5,4.941A4.928,4.928,0,1,1,173.577,40.143Zm0.014,8.345A3.225,3.225,0,0,0,176.83,45a3.235,3.235,0,1,0-6.465,0A3.223,3.223,0,0,0,173.591,48.488Zm9.237-8.106H184.5V48.25h4v1.51h-5.668V40.382Zm9.543,0h1.672V48.25h4v1.51h-5.667V40.382Zm9.543,0h6.225v1.51h-4.554v2.3H207.9v1.51h-4.315V48.25h4.793v1.51h-6.464V40.382Zm19.112,8.688a8.147,8.147,0,0,1-3.89.928,4.928,4.928,0,1,1,0-9.855,5.369,5.369,0,0,1,3.7,1.179l-1.233,1.246a3.552,3.552,0,0,0-2.456-.915A3.184,3.184,0,0,0,213.924,45a3.223,3.223,0,0,0,3.226,3.484,4.505,4.505,0,0,0,2.2-.49V45.786h-1.924v-1.51h3.6V49.07Zm4.632-8.688h6.225v1.51H227.33v2.3h4.314v1.51H227.33V48.25h4.791v1.51h-6.463V40.382Z"/>
    </g>
    <g id="Georgia_Gwinnett" data-name="Georgia Gwinnett">
      <path id="Gwinnett" class="cls-2" d="M160.314,29.992a11.979,11.979,0,0,1-5.843,1.431,7.16,7.16,0,0,1-7.458-7.548c0-4.643,3.109-7.669,7.458-7.669a7.927,7.927,0,0,1,5.564,1.82l-1.855,1.922a5.258,5.258,0,0,0-3.689-1.411,4.858,4.858,0,0,0-4.846,5.175c0,3.089,1.934,5.38,4.846,5.38a6.631,6.631,0,0,0,3.31-.757V24.919h-2.892V22.588h5.405v7.4Zm1.455-8.755h2.591l2.075,6.872h0.04l1.934-6.872H171l2.074,6.872h0.04l1.994-6.872h2.413l-3.251,9.818H171.9l-2.275-6.709h-0.039l-2.015,6.709H165.1Zm18.385-4.807a1.473,1.473,0,1,1-1.515,1.473A1.489,1.489,0,0,1,180.154,16.431Zm-1.177,4.807h2.394v9.818h-2.394V21.238Zm5.145,0H186.4v1.574h0.041a3,3,0,0,1,2.932-1.82c2.573,0,3.489,1.861,3.489,3.865v6.2h-2.393V26.085c0-1.084-.081-2.883-1.754-2.883-1.576,0-2.2,1.186-2.2,2.495v5.359h-2.393V21.238Zm11.447,0h2.273v1.574h0.04a3,3,0,0,1,2.931-1.82c2.571,0,3.49,1.861,3.49,3.865v6.2h-2.394V26.085c0-1.084-.08-2.883-1.754-2.883-1.575,0-2.194,1.186-2.194,2.495v5.359h-2.392V21.238Zm13.359,5.768a2.5,2.5,0,0,0,2.573,2.331,3.13,3.13,0,0,0,2.574-1.329l1.714,1.329a4.933,4.933,0,0,1-4.048,1.964,5.023,5.023,0,0,1-5.207-5.154,5.023,5.023,0,0,1,5.207-5.154c2.672,0,4.485,1.922,4.485,5.338v0.676h-7.3Zm4.907-1.841a2.227,2.227,0,0,0-2.433-2.331,2.4,2.4,0,0,0-2.474,2.331h4.907Zm3.509-1.841V21.238h1.975V18.394h2.393v2.843h2.631v2.086h-2.631v4.3c0,0.982.279,1.6,1.334,1.6a2.435,2.435,0,0,0,1.3-.307v2.066a4.933,4.933,0,0,1-1.895.327c-2.532,0-3.129-1.166-3.129-3.476v-4.5h-1.975Zm7.756,0V21.238h1.975V18.394h2.394v2.843H232.1v2.086h-2.631v4.3c0,0.982.277,1.6,1.334,1.6a2.44,2.44,0,0,0,1.3-.307v2.066a4.933,4.933,0,0,1-1.895.327c-2.531,0-3.13-1.166-3.13-3.476v-4.5H225.1Z"/>
      <path id="Georgia" class="cls-2" d="M79.641,29.977a11.98,11.98,0,0,1-5.842,1.43,7.156,7.156,0,0,1-7.456-7.538c0-4.636,3.11-7.66,7.456-7.66a7.93,7.93,0,0,1,5.563,1.818l-1.855,1.92a5.256,5.256,0,0,0-3.688-1.41,4.853,4.853,0,0,0-4.845,5.168c0,3.085,1.934,5.372,4.845,5.372a6.641,6.641,0,0,0,3.309-.755V24.911H74.238V22.583h5.4v7.395ZM84.306,27a2.5,2.5,0,0,0,2.573,2.328A3.122,3.122,0,0,0,89.449,28l1.716,1.327a4.939,4.939,0,0,1-4.047,1.961,5.018,5.018,0,0,1-5.2-5.148,5.017,5.017,0,0,1,5.2-5.147c2.671,0,4.486,1.92,4.486,5.331V27h-7.3Zm4.906-1.839a2.226,2.226,0,0,0-2.433-2.328,2.4,2.4,0,0,0-2.473,2.328h4.906Zm9.35-4.167a5.018,5.018,0,0,1,5.2,5.147,5.2,5.2,0,0,1-10.408,0A5.017,5.017,0,0,1,98.561,20.99Zm0,8.088a2.808,2.808,0,0,0,2.811-2.942,2.814,2.814,0,1,0-5.622,0A2.807,2.807,0,0,0,98.561,29.078ZM106,21.235h2.391v1.552h0.041a3.032,3.032,0,0,1,3.688-1.654V23.5a4.679,4.679,0,0,0-1.156-.184,2.44,2.44,0,0,0-2.573,2.471v5.25H106v-9.8Zm17.248,0V30.16c0,3.535-1.675,5.781-5.4,5.781a6.706,6.706,0,0,1-4.745-1.613l1.436-2a4.559,4.559,0,0,0,3.289,1.409c2.313,0,3.031-1.347,3.031-3.288V29.732h-0.04a3.858,3.858,0,0,1-3.131,1.43,4.75,4.75,0,0,1-4.764-5.025c0-2.9,1.774-5.147,4.725-5.147a3.661,3.661,0,0,1,3.289,1.715h0.04v-1.47h2.273Zm-7.935,4.881a2.8,2.8,0,0,0,2.811,2.839,2.722,2.722,0,0,0,2.851-2.88,2.7,2.7,0,0,0-2.831-2.88A2.739,2.739,0,0,0,115.311,26.116Zm11.863-9.681a1.471,1.471,0,1,1-1.516,1.471A1.487,1.487,0,0,1,127.174,16.435ZM126,21.235h2.393v9.8H126v-9.8Zm11.125,8.455h-0.06a3.416,3.416,0,0,1-3.071,1.595c-1.773,0-3.489-1-3.489-2.942,0-3.186,3.63-3.412,6.022-3.412h0.6V24.666c0-1.205-.918-1.838-2.193-1.838a3.717,3.717,0,0,0-2.552,1.021l-1.257-1.286a5.534,5.534,0,0,1,4.068-1.573c4.087,0,4.087,3.022,4.087,4.412v5.638h-2.153V29.69Zm-0.139-3.043h-0.5c-1.316,0-3.588.1-3.588,1.512a1.475,1.475,0,0,0,1.675,1.285,2.106,2.106,0,0,0,2.413-2.246V26.647Z"/>
    </g>
    <g id="G">
      <path id="G_outer" class="cls-2" d="M27.166,22.817H57.987C57.863,37.04,48.373,41.737,44.1,43.006c-4.382,1.308-19.274,2.278-26.909,0C0.363,37.99-2.675,20.311,4.572,9.738,12.363-1.625,27.438-2.33,37.563,3.963,14.251,4.788,11.548,31.9,30.592,38.754c3.64-1.4,9.361-5.335,9.8-11.81H27.166V22.817Z"/>
      <path id="G_inner" class="cls-3" d="M23.206,3.829c-25.332,2.888-22.121,34.54,0,35.852C9.672,29.273,12.1,11.173,23.206,3.829Zm14.75,35.763c2.865-1.31,7.11-9.18,7.2-12.853h8.41C52.445,33.127,47.416,39.681,37.957,39.592Z"/>
    </g>
  </g>
</svg>
